<?xml version="1.0" standalone="no"?>
<!DOCTYPE svg PUBLIC "-//W3C//DTD SVG 20010904//EN"
 "http://www.w3.org/TR/2001/REC-SVG-20010904/DTD/svg10.dtd">
<svg version="1.0" xmlns="http://www.w3.org/2000/svg"
 width="200.000000pt" height="200.000000pt" viewBox="0 0 200.000000 200.000000"
 preserveAspectRatio="xMidYMid meet">
<metadata>
Created by potrace 1.14, written by Peter Selinger 2001-2017
</metadata>
<g transform="translate(0.000000,200.000000) scale(0.100000,-0.100000)"
fill="#000000" stroke="none">
<path d="M0 1000 l0 -1000 1000 0 1000 0 0 1000 0 1000 -1000 0 -1000 0 0
-1000z m710 385 c0 -173 3 -315 8 -315 4 0 142 142 307 315 l299 315 153 0
c84 0 153 -2 153 -4 0 -3 -117 -127 -260 -277 -154 -160 -257 -276 -253 -283
4 -6 77 -117 163 -246 86 -129 205 -308 263 -398 l106 -162 -152 0 -152 0
-192 298 c-106 163 -198 306 -206 316 -14 19 -20 15 -126 -78 l-111 -98 0
-219 0 -219 -125 0 -125 0 0 685 0 685 125 0 125 0 0 -315z"/>
</g>
</svg>
